<svg width="127" height="28" viewBox="0 0 127 28" fill="none" xmlns="http://www.w3.org/2000/svg">
<g clip-path="url(#clip0_1075_19038)">
<path d="M34.987 22.3788C35.0417 22.356 35.094 22.3287 35.1482 22.3051C35.1952 22.2846 35.2376 22.2649 35.2785 22.2456C39.1041 20.5322 41.8895 16.805 41.8895 11.6676C41.8895 4.44845 36.4309 3.05176e-05 30.3039 3.05176e-05C24.2113 3.05176e-05 18.7527 4.44845 18.7527 11.6676C18.7527 18.6439 23.8866 23.0354 29.7539 23.2935C32.825 26.7817 35.3537 28 37.7144 28C39.0475 28 40.0254 27.7723 41.1637 27.2561V23.3429C40.3501 23.8287 39.6014 24.0223 38.4631 24.0223C37.1949 24.0223 35.8656 23.5061 34.987 22.3788ZM23.2907 11.6373C23.2907 6.59295 26.8431 4.19415 30.3039 4.19415C33.7952 4.19415 37.3515 6.59295 37.3515 11.6373C37.3515 16.6816 33.7952 19.0804 30.3039 19.0804C26.8431 19.0804 23.2907 16.6816 23.2907 11.6373ZM46.7418 14.9174V0.474478H51.1213V14.6024C51.1213 17.5352 52.7714 19.0804 55.3739 19.0804C58.0397 19.0804 59.6582 17.5352 59.6582 14.6024V0.474478H64.038V14.9174C64.038 20.4047 60.198 23.3375 55.3739 23.3375C50.5815 23.3375 46.7418 20.4047 46.7418 14.9174ZM82.7621 17.7239H73.622L71.7495 22.8327H67.1161L75.7481 0.474478H80.8258L89.3949 22.8327H84.6346L82.7621 17.7239ZM75.0816 13.7507H81.3018L78.1917 5.29904L75.0816 13.7507ZM93.5505 22.8327V0.474478H97.9299V18.6701H107.959V22.8327H93.5505ZM112.591 22.8327V0.474478H116.971V18.6701H127V22.8327H112.591ZM0 22.8377V0.43842H14.117V4.54562H4.38785V9.66358H13.1949V13.5495H4.38785V18.7308H14.117V22.838L0 22.8377Z" fill="black"/>
</g>
<defs>
<clipPath id="clip0_1075_19038">
<rect width="127" height="28" fill="white"/>
</clipPath>
</defs>
</svg>
